<svg xmlns="http://www.w3.org/2000/svg" viewBox="0 0 760 300" role="img" aria-labelledby="mrangaLogoTitle mrangaLogoDesc">
  <title id="mrangaLogoTitle">Mranga Tours and Safaris Ltd. logo</title>
  <desc id="mrangaLogoDesc">A safari-inspired logo with wildlife silhouettes, a sun, and the Mranga wordmark.</desc>
  <rect width="760" height="300" fill="#f7f0df"/>
  <circle cx="592" cy="64" r="36" fill="#f2a11f"/>
  <g fill="#38501c">
    <path d="M96 132c6-35 29-55 69-60-12 8-18 19-21 33 23 5 37 17 44 36 12-7 19-19 22-34 10 14 13 31 9 49h-18c2-10 1-18-3-25-4 12-11 21-20 25H76c0-9 3-17 10-24 6-6 13-11 21-13-2-14-6-23-11-27z"/>
    <path d="M247 138c7-24 17-40 31-47 1 25-2 46-11 65h-20c-2-6-2-12 0-18z"/>
    <path d="M286 78h8v81h-8z"/>
    <path d="M304 96c5-7 10-12 16-15 8 11 11 24 8 40-9 3-17 7-23 12-3-12-3-24-1-37z"/>
    <path d="M340 108c7-15 18-25 32-31 8 17 10 34 6 51-8-1-17-1-26 1-7-6-11-13-12-21z"/>
    <path d="M403 112c13-13 27-19 43-18 15 20 18 41 10 62h-23l-5-18h-24l-7 18h-21c3-18 12-33 27-44zm11 11-7 18h15z"/>
    <path d="M488 95c17-6 35-4 53 6 9 22 10 41 2 58h-20l-5-13h-30l-6 13h-21c5-24 14-45 27-64zm10 17-8 18h21l-8-18z"/>
    <path d="M594 98c24-9 47-6 69 8 9 24 9 45-1 61h-21l-3-10h-33l-5 10h-22c5-28 17-51 36-69zm12 19-10 21h27l-10-21z"/>
    <path d="M141 154c3-18 14-31 34-38 15 7 24 20 28 38z"/>
    <path d="M471 161c6-26 23-45 51-56 23 13 35 32 37 56z" fill="none" stroke="#38501c" stroke-width="10" stroke-linecap="round"/>
    <path d="M649 163c6-18 19-31 39-37 14 8 23 20 28 37z" fill="none" stroke="#38501c" stroke-width="10" stroke-linecap="round"/>
    <path d="M0 170h760v6H0z"/>
  </g>
  <g fill="#38501c" font-family="Georgia, 'Times New Roman', serif" text-anchor="middle">
    <text x="380" y="222" font-size="92" font-weight="700" letter-spacing="4">MRANGA</text>
    <text x="380" y="255" font-size="34" font-style="italic" font-weight="700">Tours and Safaris Ltd.</text>
    <text x="380" y="284" font-size="22" font-style="italic" fill="#c27f17">Incredible wildlife safari.</text>
  </g>
</svg>
