<svg width="1600" height="900" viewBox="0 0 1600 900" fill="none" xmlns="http://www.w3.org/2000/svg">
  <rect width="1600" height="900" fill="#F4EDDE"/>
  <rect width="800" height="900" fill="#E8D19C"/>
  <rect x="800" width="800" height="900" fill="#D8EEF2"/>
  <path d="M0 511C173 474 359 469 543 514C706 554 819 619 800 619C782 619 678 570 535 554C343 532 191 569 0 629V511Z" fill="#5A7148"/>
  <path d="M800 503C957 474 1088 487 1240 542C1369 588 1488 603 1600 579V900H800V503Z" fill="#49B3CA"/>
  <path d="M0 660C175 626 342 637 524 689C657 726 747 767 800 791V900H0V660Z" fill="#30412F"/>
  <path d="M800 650C919 655 1037 691 1182 756C1308 813 1458 830 1600 796V900H800V650Z" fill="#F5D89E"/>
  <circle cx="1276" cy="164" r="60" fill="#FFF0C9"/>
  <path d="M495 566C532 514 579 486 633 486C696 486 753 521 794 578" stroke="#18211D" stroke-width="18" stroke-linecap="round"/>
  <rect x="226" y="522" width="24" height="156" rx="12" fill="#18211D"/>
  <path d="M238 530C255 485 293 454 340 454C391 454 433 482 463 529" stroke="#18211D" stroke-width="16" stroke-linecap="round"/>
  <rect x="1112" y="452" width="18" height="189" rx="9" fill="#2A6B41"/>
  <path d="M1121 457C1143 402 1188 372 1245 372C1301 372 1352 405 1392 465" stroke="#2A6B41" stroke-width="17" stroke-linecap="round"/>
</svg>
