<svg width="1600" height="900" viewBox="0 0 1600 900" fill="none" xmlns="http://www.w3.org/2000/svg">
  <rect width="1600" height="900" fill="#EEE6D7"/>
  <rect width="1600" height="360" fill="#D5D2C8"/>
  <path d="M0 436C188 407 324 364 471 293C629 217 774 189 958 224C1123 255 1294 336 1600 396V900H0V436Z" fill="#726656"/>
  <path d="M0 590C183 547 351 548 531 589C698 627 858 690 1026 707C1222 727 1407 684 1600 607V900H0V590Z" fill="#6B7A4D"/>
  <path d="M0 684C146 652 321 655 505 703C665 744 804 802 959 814C1150 829 1355 782 1600 703V900H0V684Z" fill="#314236"/>
  <path d="M432 447L565 313L645 447H432Z" fill="#433A31"/>
  <path d="M668 447L833 235L958 447H668Z" fill="#5C4F40"/>
  <path d="M952 447L1081 292L1188 447H952Z" fill="#463E35"/>
  <circle cx="1288" cy="142" r="49" fill="#FFF2D2"/>
</svg>
